# xmcd
# 
# Track frame offsets:
#     150
#     9535
#     14876
#     17421
#     21027
#     24187
#     28307
#     40546
#     44163
#     52489
#     62942
#     73406
#     84695
#     106668
#     126533
#     139667
#     169689
#     241535
#     284598
#     304895
#     342491
# 
# Disc length: 4799
# 
# Revision: 0
# Processed by: cddbd v1.5.2PL0 Copyright (c) Steve Scherf et al.
# Submitted via: fre:ac v1.0.27
# 
DISCID=3512bd15
DTITLE=ALDO CICCOLINI - S238 CD1
DYEAR=0
DGENRE=
TTITLE0=1 Ciccolini Schumann I Sce?nes d'enfant Op. 15
TTITLE1=2 Ciccolini Schumann II Sce?nes d'enfant Op. 15
TTITLE2=3 Ciccolini Schumann III Sce?nes d'enfant Op. 15
TTITLE3=4 Ciccolini Schumann IV Sce?nes d'enfant Op. 15
TTITLE4=5 Ciccolini Schumann V Sce?nes d'enfant Op. 15
TTITLE5=6 Ciccolini Schumann VI Sce?nes d'enfant Op. 15
TTITLE6=7 Ciccolini Schumann VII Sce?nes d'enfant Op. 15
TTITLE7=8 Ciccolini Schumann IX Sce?nes d'enfant Op. 15
TTITLE8=9 Ciccolini Schumann X Sce?nes d'enfant Op. 15
TTITLE9=10 Ciccolini Schumann XI Sce?nes d'enfant Op. 15
TTITLE10=11 Ciccolini Schumann XII Sce?nes d'enfant Op. 15
TTITLE11=12 Ciccolini Schumann XIII Sce?nes d'enfant Op. 15
TTITLE12=13 Ciccolini Grieg I Sonate Op. 7
TTITLE13=14 Ciccolini Grieg II Sonate Op. 7
TTITLE14=15 Ciccolini Grieg III Sonate Op. 7
TTITLE15=16 Ciccolini Grieg IV Sonate Op. 7
TTITLE16=17 Ciccolini Schubert I Sonate n 21 D. 960
TTITLE17=18 Ciccolini Schubert II Sonate n 21 D. 960
TTITLE18=19 Ciccolini Schubert III Sonate n 21 D. 960
TTITLE19=20 Ciccolini Schubert IV Sonate n 21 D. 960
TTITLE20=21 Ciccolini Granados Danzas Espan?olas n 5 Andaluza
EXTD=
EXTT0=
EXTT1=
EXTT2=
EXTT3=
EXTT4=
EXTT5=
EXTT6=
EXTT7=
EXTT8=
EXTT9=
EXTT10=
EXTT11=
EXTT12=
EXTT13=
EXTT14=
EXTT15=
EXTT16=
EXTT17=
EXTT18=
EXTT19=
EXTT20=
PLAYORDER=
